<svg width="50" height="30" viewBox="0 0 50 30" fill="none" xmlns="http://www.w3.org/2000/svg">
<path d="M12.4351 7C13.5357 7 14.4279 6.10457 14.4279 5C14.4279 3.89543 13.5357 3 12.4351 3C11.3346 3 10.4424 3.89543 10.4424 5C10.4424 6.10457 11.3346 7 12.4351 7Z" fill="#2196F3"/>
<path d="M46.5023 29.4997L5.56411 29.4997C2.99248 29.4997 0.978638 27.5874 0.978638 25.3123L0.978638 4.68743C0.978638 2.41236 2.99247 0.5 5.56411 0.5L44.2138 0.5C46.7855 0.49992 48.7993 2.41227 48.7993 4.68743L48.7993 27.4896C48.7993 28.1511 48.7992 28.5949 48.7608 28.9145C48.7225 29.2337 48.6571 29.311 48.6252 29.3388C48.5796 29.3787 48.4593 29.4417 48.0824 29.4733C47.7578 29.5006 47.3317 29.5003 46.7416 29.4999C46.6647 29.4998 46.585 29.4997 46.5023 29.4997Z" stroke="#006FFD"/>
<path d="M1.47559 25L48.3037 25V17L1.47559 17V25Z" fill="#1F95EE"/>
<path d="M33.5926 8.5934L41.7151 8.5934C42.2759 8.5934 42.7305 9.01812 42.7305 9.542C42.7305 10.0659 42.2759 10.4906 41.7151 10.4906L33.5926 10.4906C33.0319 10.4906 32.5773 10.0659 32.5773 9.542C32.5773 9.01812 33.0319 8.5934 33.5926 8.5934Z" fill="#2196F3"/>
<path d="M27.5013 4.79909L41.7152 4.79909C42.2759 4.79909 42.7305 5.22381 42.7305 5.74769C42.7305 6.27157 42.2759 6.69629 41.7152 6.69629L27.5013 6.69629C26.9406 6.69629 26.486 6.27157 26.486 5.74769C26.486 5.22381 26.9406 4.79909 27.5013 4.79909Z" fill="#2196F3"/>
<path d="M14.0547 9H10.8165C9.51181 9 8.4502 9.79913 8.4502 10.7812V11.7188C8.4502 11.874 8.61758 12 8.82383 12H16.0474C16.2536 12 16.421 11.874 16.421 11.7188V10.7812C16.421 9.79913 15.3594 9 14.0547 9Z" fill="#2196F3"/>
<path d="M8.61517 2H6.95465C5.5814 2 4.46387 2.673 4.46387 3.5V4.5C4.46387 4.7765 4.83582 5 5.29413 5C5.75243 5 6.12439 4.7765 6.12439 4.5V3.5C6.12439 3.224 6.49718 3 6.95465 3H8.61517C9.07348 3 9.44543 2.7765 9.44543 2.5C9.44543 2.2235 9.07348 2 8.61517 2Z" fill="#2196F3"/>
<path d="M8.61517 14H6.95465C6.49718 14 6.12439 13.776 6.12439 13.5V12.5C6.12439 12.2235 5.75243 12 5.29413 12C4.83582 12 4.46387 12.2235 4.46387 12.5V13.5C4.46387 14.327 5.5814 15 6.95465 15H8.61517C9.07348 15 9.44543 14.7765 9.44543 14.5C9.44543 14.2235 9.07348 14 8.61517 14Z" fill="#2196F3"/>
<path d="M17.9151 2H16.9186C16.6436 2 16.4204 2.2235 16.4204 2.5C16.4204 2.7765 16.6436 3 16.9186 3H17.9151C18.1896 3 18.4133 3.224 18.4133 3.5V4.5C18.4133 4.7765 18.6365 5 18.9116 5C19.1866 5 19.4098 4.7765 19.4098 4.5V3.5C19.4098 2.673 18.7392 2 17.9151 2Z" fill="#2196F3"/>
<path d="M18.9116 12C18.6365 12 18.4133 12.2235 18.4133 12.5V13.5C18.4133 13.776 18.1896 14 17.9151 14H16.9186C16.6436 14 16.4204 14.2235 16.4204 14.5C16.4204 14.7765 16.6436 15 16.9186 15H17.9151C18.7392 15 19.4098 14.327 19.4098 13.5V12.5C19.4098 12.2235 19.1866 12 18.9116 12Z" fill="#2196F3"/>
</svg>
