<svg width="24" height="24" viewBox="0 0 24 24" fill="none" xmlns="http://www.w3.org/2000/svg">
<path d="M21.4844 2.34375H19.5312V1.5625C19.5312 1.1481 19.3666 0.750671 19.0736 0.457646C18.7806 0.16462 18.3832 0 17.9688 0C17.5543 0 17.1569 0.16462 16.8639 0.457646C16.5709 0.750671 16.4062 1.1481 16.4062 1.5625V2.34375H13.2812V1.5625C13.2812 1.1481 13.1166 0.750671 12.8236 0.457646C12.5306 0.16462 12.1332 0 11.7188 0C11.3043 0 10.9069 0.16462 10.6139 0.457646C10.3209 0.750671 10.1562 1.1481 10.1562 1.5625V2.34375H7.03125V1.5625C7.03125 1.1481 6.86663 0.750671 6.5736 0.457646C6.28058 0.16462 5.88315 0 5.46875 0C5.05435 0 4.65692 0.16462 4.3639 0.457646C4.07087 0.750671 3.90625 1.1481 3.90625 1.5625V2.34375H1.95312C1.43512 2.34375 0.938339 2.54953 0.572057 2.91581C0.205775 3.28209 0 3.77887 0 4.29688V19.9219C0 20.4399 0.205775 20.9367 0.572057 21.3029C0.938339 21.6692 1.43512 21.875 1.95312 21.875H12.8906C12.9942 21.875 13.0936 21.8338 13.1668 21.7606C13.2401 21.6873 13.2812 21.588 13.2812 21.4844C13.2812 21.3808 13.2401 21.2814 13.1668 21.2082C13.0936 21.1349 12.9942 21.0938 12.8906 21.0938H1.95312C1.64261 21.0928 1.34508 20.9691 1.12551 20.7495C0.90594 20.5299 0.782177 20.2324 0.78125 19.9219V7.8125H22.6562V14.4531C22.6562 14.5567 22.6974 14.6561 22.7707 14.7293C22.8439 14.8026 22.9433 14.8438 23.0469 14.8438C23.1505 14.8438 23.2498 14.8026 23.3231 14.7293C23.3963 14.6561 23.4375 14.5567 23.4375 14.4531V4.29688C23.4375 3.77887 23.2317 3.28209 22.8654 2.91581C22.4992 2.54953 22.0024 2.34375 21.4844 2.34375ZM17.1875 1.5625C17.1875 1.3553 17.2698 1.15659 17.4163 1.01007C17.5628 0.86356 17.7615 0.78125 17.9688 0.78125C18.176 0.78125 18.3747 0.86356 18.5212 1.01007C18.6677 1.15659 18.75 1.3553 18.75 1.5625V3.90625C18.75 4.11345 18.6677 4.31216 18.5212 4.45868C18.3747 4.60519 18.176 4.6875 17.9688 4.6875C17.7615 4.6875 17.5628 4.60519 17.4163 4.45868C17.2698 4.31216 17.1875 4.11345 17.1875 3.90625V1.5625ZM10.9375 1.5625C10.9375 1.3553 11.0198 1.15659 11.1663 1.01007C11.3128 0.86356 11.5115 0.78125 11.7188 0.78125C11.926 0.78125 12.1247 0.86356 12.2712 1.01007C12.4177 1.15659 12.5 1.3553 12.5 1.5625V3.90625C12.5 4.11345 12.4177 4.31216 12.2712 4.45868C12.1247 4.60519 11.926 4.6875 11.7188 4.6875C11.5115 4.6875 11.3128 4.60519 11.1663 4.45868C11.0198 4.31216 10.9375 4.11345 10.9375 3.90625V1.5625ZM4.6875 1.5625C4.6875 1.3553 4.76981 1.15659 4.91632 1.01007C5.06284 0.86356 5.26155 0.78125 5.46875 0.78125C5.67595 0.78125 5.87466 0.86356 6.02118 1.01007C6.16769 1.15659 6.25 1.3553 6.25 1.5625V3.90625C6.25 4.11345 6.16769 4.31216 6.02118 4.45868C5.87466 4.60519 5.67595 4.6875 5.46875 4.6875C5.26155 4.6875 5.06284 4.60519 4.91632 4.45868C4.76981 4.31216 4.6875 4.11345 4.6875 3.90625V1.5625ZM22.6562 7.03125H0.78125V4.29688C0.782177 3.98636 0.90594 3.68883 1.12551 3.46926C1.34508 3.24969 1.64261 3.12593 1.95312 3.125H3.90625V3.90625C3.90625 4.32065 4.07087 4.71808 4.3639 5.0111C4.65692 5.30413 5.05435 5.46875 5.46875 5.46875C5.88315 5.46875 6.28058 5.30413 6.5736 5.0111C6.86663 4.71808 7.03125 4.32065 7.03125 3.90625V3.125H10.1562V3.90625C10.1562 4.32065 10.3209 4.71808 10.6139 5.0111C10.9069 5.30413 11.3043 5.46875 11.7188 5.46875C12.1332 5.46875 12.5306 5.30413 12.8236 5.0111C13.1166 4.71808 13.2812 4.32065 13.2812 3.90625V3.125H16.4062V3.90625C16.4062 4.32065 16.5709 4.71808 16.8639 5.0111C17.1569 5.30413 17.5543 5.46875 17.9688 5.46875C18.3832 5.46875 18.7806 5.30413 19.0736 5.0111C19.3666 4.71808 19.5312 4.32065 19.5312 3.90625V3.125H21.4844C21.7949 3.12593 22.0924 3.24969 22.312 3.46926C22.5316 3.68883 22.6553 3.98636 22.6562 4.29688V7.03125Z" fill="#1F95EE"/>
<path d="M10.9375 10.5469C10.9375 10.3397 10.8552 10.141 10.7087 9.99445C10.5622 9.84794 10.3635 9.76562 10.1562 9.76562H8.59375C8.38655 9.76562 8.18784 9.84794 8.04132 9.99445C7.89481 10.141 7.8125 10.3397 7.8125 10.5469V11.7188C7.8125 11.926 7.89481 12.1247 8.04132 12.2712C8.18784 12.4177 8.38655 12.5 8.59375 12.5H10.1562C10.3635 12.5 10.5622 12.4177 10.7087 12.2712C10.8552 12.1247 10.9375 11.926 10.9375 11.7188V10.5469ZM8.59375 11.7188V10.5469H10.1562V11.7188H8.59375Z" fill="#1F95EE"/>
<path d="M6.25 10.5469C6.25 10.3397 6.16769 10.141 6.02118 9.99445C5.87466 9.84794 5.67595 9.76562 5.46875 9.76562H3.90625C3.69905 9.76562 3.50034 9.84794 3.35382 9.99445C3.20731 10.141 3.125 10.3397 3.125 10.5469V11.7188C3.125 11.926 3.20731 12.1247 3.35382 12.2712C3.50034 12.4177 3.69905 12.5 3.90625 12.5H5.46875C5.67595 12.5 5.87466 12.4177 6.02118 12.2712C6.16769 12.1247 6.25 11.926 6.25 11.7188V10.5469ZM3.90625 11.7188V10.5469H5.46875V11.7188H3.90625Z" fill="#1F95EE"/>
<path d="M19.5312 12.5C19.7385 12.5 19.9372 12.4177 20.0837 12.2712C20.2302 12.1247 20.3125 11.926 20.3125 11.7188V10.5469C20.3125 10.3397 20.2302 10.141 20.0837 9.99445C19.9372 9.84794 19.7385 9.76562 19.5312 9.76562H17.9688C17.7615 9.76562 17.5628 9.84794 17.4163 9.99445C17.2698 10.141 17.1875 10.3397 17.1875 10.5469V11.7188C17.1875 11.926 17.2698 12.1247 17.4163 12.2712C17.5628 12.4177 17.7615 12.5 17.9688 12.5H19.5312ZM17.9688 10.5469H19.5312V11.7188H17.9688V10.5469Z" fill="#1F95EE"/>
<path d="M10.9375 14.0625C10.9375 13.8553 10.8552 13.6566 10.7087 13.5101C10.5622 13.3636 10.3635 13.2812 10.1562 13.2812H8.59375C8.38655 13.2812 8.18784 13.3636 8.04132 13.5101C7.89481 13.6566 7.8125 13.8553 7.8125 14.0625V15.2344C7.8125 15.4416 7.89481 15.6403 8.04132 15.7868C8.18784 15.9333 8.38655 16.0156 8.59375 16.0156H10.1562C10.3635 16.0156 10.5622 15.9333 10.7087 15.7868C10.8552 15.6403 10.9375 15.4416 10.9375 15.2344V14.0625ZM8.59375 15.2344V14.0625H10.1562V15.2344H8.59375Z" fill="#1F95EE"/>
<path d="M6.25 14.0625C6.25 13.8553 6.16769 13.6566 6.02118 13.5101C5.87466 13.3636 5.67595 13.2812 5.46875 13.2812H3.90625C3.69905 13.2812 3.50034 13.3636 3.35382 13.5101C3.20731 13.6566 3.125 13.8553 3.125 14.0625V15.2344C3.125 15.4416 3.20731 15.6403 3.35382 15.7868C3.50034 15.9333 3.69905 16.0156 3.90625 16.0156H5.46875C5.67595 16.0156 5.87466 15.9333 6.02118 15.7868C6.16769 15.6403 6.25 15.4416 6.25 15.2344V14.0625ZM3.90625 15.2344V14.0625H5.46875V15.2344H3.90625Z" fill="#1F95EE"/>
<path d="M10.1562 16.7969H8.59375C8.38655 16.7969 8.18784 16.8792 8.04132 17.0257C7.89481 17.1722 7.8125 17.3709 7.8125 17.5781V18.75C7.8125 18.9572 7.89481 19.1559 8.04132 19.3024C8.18784 19.4489 8.38655 19.5312 8.59375 19.5312H10.1562C10.3635 19.5312 10.5622 19.4489 10.7087 19.3024C10.8552 19.1559 10.9375 18.9572 10.9375 18.75V17.5781C10.9375 17.3709 10.8552 17.1722 10.7087 17.0257C10.5622 16.8792 10.3635 16.7969 10.1562 16.7969ZM8.59375 18.75V17.5781H10.1562V18.75H8.59375Z" fill="#1F95EE"/>
<path d="M13.2812 12.5H14.8438C15.051 12.5 15.2497 12.4177 15.3962 12.2712C15.5427 12.1247 15.625 11.926 15.625 11.7188V10.5469C15.625 10.3397 15.5427 10.141 15.3962 9.99445C15.2497 9.84794 15.051 9.76562 14.8438 9.76562H13.2812C13.074 9.76562 12.8753 9.84794 12.7288 9.99445C12.5823 10.141 12.5 10.3397 12.5 10.5469V11.7188C12.5 11.926 12.5823 12.1247 12.7288 12.2712C12.8753 12.4177 13.074 12.5 13.2812 12.5ZM13.2812 10.5469H14.8438V11.7188H13.2812V10.5469Z" fill="#1F95EE"/>
<path d="M12.5 15.2344C12.5 15.4416 12.5823 15.6403 12.7288 15.7868C12.8753 15.9333 13.074 16.0156 13.2812 16.0156C13.3849 16.0156 13.4842 15.9745 13.5575 15.9012C13.6307 15.828 13.6719 15.7286 13.6719 15.625C13.6719 15.5214 13.6307 15.422 13.5575 15.3488C13.4842 15.2755 13.3849 15.2344 13.2812 15.2344V14.0625H14.8438C14.9474 14.0625 15.0467 14.0213 15.12 13.9481C15.1932 13.8748 15.2344 13.7755 15.2344 13.6719C15.2344 13.5683 15.1932 13.4689 15.12 13.3957C15.0467 13.3224 14.9474 13.2812 14.8438 13.2812H13.2812C13.074 13.2812 12.8753 13.3636 12.7288 13.5101C12.5823 13.6566 12.5 13.8553 12.5 14.0625V15.2344Z" fill="#1F95EE"/>
<path d="M5.46875 16.7969H3.90625C3.69905 16.7969 3.50034 16.8792 3.35382 17.0257C3.20731 17.1722 3.125 17.3709 3.125 17.5781V18.75C3.125 18.9572 3.20731 19.1559 3.35382 19.3024C3.50034 19.4489 3.69905 19.5312 3.90625 19.5312H5.46875C5.67595 19.5312 5.87466 19.4489 6.02118 19.3024C6.16769 19.1559 6.25 18.9572 6.25 18.75V17.5781C6.25 17.3709 6.16769 17.1722 6.02118 17.0257C5.87466 16.8792 5.67595 16.7969 5.46875 16.7969ZM3.90625 18.75V17.5781H5.46875V18.75H3.90625Z" fill="#1F95EE"/>
<path d="M18.3594 13.2813C17.355 13.2812 16.3732 13.5791 15.5381 14.1371C14.703 14.6951 14.0522 15.4882 13.6678 16.4161C13.2835 17.344 13.1829 18.365 13.3788 19.3501C13.5748 20.3351 14.0584 21.24 14.7686 21.9501C15.4788 22.6603 16.3836 23.144 17.3687 23.3399C18.3537 23.5359 19.3748 23.4353 20.3027 23.0509C21.2306 22.6666 22.0237 22.0157 22.5817 21.1806C23.1397 20.3455 23.4375 19.3637 23.4375 18.3594C23.4359 17.013 22.9004 15.7223 21.9484 14.7703C20.9964 13.8183 19.7057 13.2828 18.3594 13.2813ZM18.3594 22.6562C17.5095 22.6562 16.6788 22.4042 15.9722 21.9321C15.2655 21.4599 14.7148 20.7889 14.3896 20.0037C14.0644 19.2186 13.9793 18.3546 14.1451 17.5211C14.3109 16.6876 14.7201 15.922 15.321 15.321C15.922 14.7201 16.6876 14.3109 17.5211 14.1451C18.3546 13.9793 19.2186 14.0644 20.0037 14.3896C20.7889 14.7148 21.4599 15.2655 21.9321 15.9722C22.4042 16.6788 22.6562 17.5095 22.6562 18.3594C22.6549 19.4986 22.2018 20.5907 21.3962 21.3962C20.5907 22.2018 19.4986 22.6549 18.3594 22.6562Z" fill="#1F95EE"/>
<path d="M20.6163 16.7219L17.578 19.7602L16.1972 18.3789C16.1235 18.3078 16.0248 18.2684 15.9224 18.2693C15.82 18.2702 15.722 18.3112 15.6496 18.3837C15.5771 18.4561 15.5361 18.5541 15.5352 18.6565C15.5343 18.7589 15.5737 18.8576 15.6448 18.9313L17.3018 20.5887C17.3751 20.6619 17.4744 20.703 17.578 20.703C17.6816 20.703 17.7809 20.6619 17.8542 20.5887L21.1686 17.2742C21.2398 17.2006 21.2792 17.1019 21.2783 16.9995C21.2774 16.897 21.2363 16.7991 21.1639 16.7266C21.0915 16.6542 20.9935 16.6131 20.8911 16.6122C20.7886 16.6114 20.69 16.6507 20.6163 16.7219Z" fill="#1F95EE"/>
</svg>
