<svg width="36" height="33" viewBox="0 0 36 33" fill="none" xmlns="http://www.w3.org/2000/svg">
<path d="M31.3964 0L26.6074 0C26.0538 0 25.605 0.432867 25.605 0.966797C25.605 1.50073 26.0538 1.93359 26.6074 1.93359H31.3964C32.3302 1.93359 33.0899 2.6663 33.0899 3.56684V8.18555C33.0899 8.71948 33.5388 9.15234 34.0924 9.15234C34.646 9.15234 35.0948 8.71948 35.0948 8.18555V3.56684C35.0948 1.60011 33.4357 0 31.3964 0Z" fill="#006FFD"/>
<path d="M1.88083 9.15234C2.43443 9.15234 2.88324 8.71948 2.88324 8.18555V3.56684C2.88324 2.6663 3.64294 1.93359 4.57672 1.93359H9.36551C9.91911 1.93359 10.3679 1.50073 10.3679 0.966797C10.3679 0.432867 9.91911 0 9.36551 0L4.57672 0C2.53748 0 0.878418 1.60011 0.878418 3.56684V8.18555C0.878418 8.71948 1.32723 9.15234 1.88083 9.15234Z" fill="#006FFD"/>
<path d="M9.36551 31.0664H4.57672C3.64294 31.0664 2.88324 30.3337 2.88324 29.4332V24.8145C2.88324 24.2805 2.43443 23.8477 1.88083 23.8477C1.32723 23.8477 0.878418 24.2805 0.878418 24.8145V29.4332C0.878418 31.3999 2.53748 33 4.57672 33H9.36551C9.91911 33 10.3679 32.5671 10.3679 32.0332C10.3679 31.4993 9.91911 31.0664 9.36551 31.0664Z" fill="#006FFD"/>
<path d="M34.0924 23.8477C33.5388 23.8477 33.0899 24.2805 33.0899 24.8145V29.4332C33.0899 30.3338 32.3302 31.0664 31.3964 31.0664H26.6074C26.0538 31.0664 25.605 31.4993 25.605 32.0332C25.605 32.5671 26.0538 33 26.6074 33H31.3964C33.4357 33 35.0948 31.3999 35.0948 29.4332V24.8145C35.0948 24.2805 34.646 23.8477 34.0924 23.8477Z" fill="#006FFD"/>
<path d="M28.8589 6.44226C21.9009 1.46455 14.4022 1.3379 7.2401 6.35402C6.79214 6.66778 6.69277 7.27235 7.01802 7.70438C7.34328 8.13634 7.97007 8.23231 8.41816 7.91855C14.8904 3.38577 21.4312 3.53588 27.6645 7.99519C28.1091 8.31326 28.7369 8.22355 29.0668 7.79468C29.3966 7.36587 29.3035 6.76033 28.8589 6.44226Z" fill="#006FFD"/>
<path d="M17.9869 6.76758C13.7284 6.76758 8.25363 9.50226 5.92581 12.87C5.61867 13.3143 5.74317 13.9145 6.20382 14.2107C6.66453 14.5067 7.2869 14.3868 7.59391 13.9425C9.52383 11.1504 14.3804 8.70117 17.9869 8.70117C21.5185 8.70117 26.3484 10.5183 28.3437 13.8859C28.5288 14.1982 28.867 14.3732 29.215 14.3732C29.9714 14.3732 30.4703 13.5778 30.0844 12.9266C27.7863 9.04767 22.39 6.76758 17.9869 6.76758Z" fill="#006FFD"/>
<path d="M12.5737 22.6875C12.5737 19.5245 15.0021 16.9512 17.9868 16.9512C20.9716 16.9512 23.3999 19.5245 23.3999 22.6875V23.7187C23.3999 24.2527 23.8487 24.6855 24.4024 24.6855C24.956 24.6855 25.4048 24.2527 25.4048 23.7187V22.6875C25.4048 18.4583 22.0771 15.0176 17.9868 15.0176C13.8965 15.0176 10.5688 18.4583 10.5688 22.6875C10.5688 26.7985 13.7737 29.0009 15.1886 30.9722C15.3833 31.2433 15.6959 31.3887 16.0138 31.3887C16.8119 31.3887 17.3004 30.5169 16.837 29.8715C15.3057 27.7382 12.5737 25.9691 12.5737 22.6875Z" fill="#006FFD"/>
<path d="M29.0415 26.2136C32.1396 20.2379 26.6304 10.8926 17.987 10.8926C11.9016 10.8926 6.29199 15.8669 6.29199 22.1719C6.29199 24.461 6.59646 26.3971 8.08233 28.4053C8.40391 28.84 9.02989 28.9409 9.48058 28.6307C9.93121 28.3206 10.0359 27.7169 9.71428 27.2822C8.66781 25.8678 8.29685 24.5305 8.29685 22.1719C8.29685 17.1933 12.8249 12.8262 17.987 12.8262C20.5857 12.8262 23.1521 13.9316 25.0282 15.8591C27.6841 18.5876 28.6385 22.6673 27.2484 25.3489C25.8012 28.1401 21.1279 27.349 21.1279 23.7188C21.1279 16.5487 13.5125 18.6932 14.876 23.9532C15.0102 24.4713 15.5546 24.7861 16.0915 24.6567C16.6286 24.5272 16.9552 24.0023 16.8209 23.4843C16.4708 22.1333 17.1131 21.0762 17.987 21.0762C18.7718 21.0762 19.1231 22.4034 19.1231 23.7188C19.1231 29.3798 26.6422 30.8419 29.0415 26.2136Z" fill="#006FFD"/>
</svg>
