<svg  viewBox="0 0 245 160" fill="none" xmlns="http://www.w3.org/2000/svg">
<path d="M219.958 121.941C221.058 121.941 221.558 121.141 221.958 120.241C222.458 119.341 222.158 118.241 221.258 117.741C220.358 117.241 219.258 117.541 218.758 118.441C218.558 118.741 218.458 118.941 218.358 119.141C217.658 120.441 218.558 121.941 219.958 121.941Z" fill="#006FFD"/>
<path d="M156.199 111.8L166.599 122.7C172.499 128.6 180.299 131.8 188.599 131.8H195.099C202.499 131.8 209.499 129 214.899 123.8C215.599 123.1 216.799 123.1 217.499 123.8C218.199 124.5 218.199 125.7 217.499 126.4C211.499 132.2 203.599 135.5 195.199 135.5H188.699C179.399 135.5 170.699 131.9 164.099 125.3C164.099 125.3 164.599 125.8 153.599 114.2" fill="#006FFD"/>
<path d="M196.799 129.3C197.799 129.3 198.599 128.5 198.599 127.5C198.599 112.9 187.699 100.4 173.299 98.5001C172.299 98.4001 171.399 99.1001 171.199 100.1C171.099 101.1 171.799 102 172.799 102.2C185.499 103.8 194.999 114.7 194.999 127.5C194.999 128.5 195.799 129.3 196.799 129.3Z" fill="#006FFD"/>
<path d="M167.58 154L164.88 150.1H164.72H161.9V154H158.66V140H164.72C165.96 140 167.033 140.207 167.94 140.62C168.86 141.033 169.567 141.62 170.06 142.38C170.553 143.14 170.8 144.04 170.8 145.08C170.8 146.12 170.547 147.02 170.04 147.78C169.547 148.527 168.84 149.1 167.92 149.5L171.06 154H167.58ZM167.52 145.08C167.52 144.293 167.267 143.693 166.76 143.28C166.253 142.853 165.513 142.64 164.54 142.64H161.9V147.52H164.54C165.513 147.52 166.253 147.307 166.76 146.88C167.267 146.453 167.52 145.853 167.52 145.08ZM173.147 143.24H176.267V154H173.147V143.24ZM174.707 141.74C174.134 141.74 173.667 141.573 173.307 141.24C172.947 140.907 172.767 140.493 172.767 140C172.767 139.507 172.947 139.093 173.307 138.76C173.667 138.427 174.134 138.26 174.707 138.26C175.28 138.26 175.747 138.42 176.107 138.74C176.467 139.06 176.647 139.46 176.647 139.94C176.647 140.46 176.467 140.893 176.107 141.24C175.747 141.573 175.28 141.74 174.707 141.74ZM190.263 143.24V152.2C190.263 154.173 189.749 155.64 188.723 156.6C187.696 157.56 186.196 158.04 184.223 158.04C183.183 158.04 182.196 157.913 181.263 157.66C180.329 157.407 179.556 157.04 178.943 156.56L180.183 154.32C180.636 154.693 181.209 154.987 181.903 155.2C182.596 155.427 183.289 155.54 183.983 155.54C185.063 155.54 185.856 155.293 186.363 154.8C186.883 154.32 187.143 153.587 187.143 152.6V152.14C186.329 153.033 185.196 153.48 183.743 153.48C182.756 153.48 181.849 153.267 181.023 152.84C180.209 152.4 179.563 151.787 179.083 151C178.603 150.213 178.363 149.307 178.363 148.28C178.363 147.253 178.603 146.347 179.083 145.56C179.563 144.773 180.209 144.167 181.023 143.74C181.849 143.3 182.756 143.08 183.743 143.08C185.303 143.08 186.489 143.593 187.303 144.62V143.24H190.263ZM184.363 150.92C185.189 150.92 185.863 150.68 186.383 150.2C186.916 149.707 187.183 149.067 187.183 148.28C187.183 147.493 186.916 146.86 186.383 146.38C185.863 145.887 185.189 145.64 184.363 145.64C183.536 145.64 182.856 145.887 182.323 146.38C181.789 146.86 181.523 147.493 181.523 148.28C181.523 149.067 181.789 149.707 182.323 150.2C182.856 150.68 183.536 150.92 184.363 150.92ZM199.707 143.08C201.04 143.08 202.113 143.48 202.927 144.28C203.753 145.08 204.167 146.267 204.167 147.84V154H201.047V148.32C201.047 147.467 200.86 146.833 200.487 146.42C200.113 145.993 199.573 145.78 198.867 145.78C198.08 145.78 197.453 146.027 196.987 146.52C196.52 147 196.287 147.72 196.287 148.68V154H193.167V139.16H196.287V144.36C196.7 143.947 197.2 143.633 197.787 143.42C198.373 143.193 199.013 143.08 199.707 143.08ZM213.935 153.48C213.628 153.707 213.248 153.88 212.795 154C212.355 154.107 211.888 154.16 211.395 154.16C210.115 154.16 209.121 153.833 208.415 153.18C207.721 152.527 207.375 151.567 207.375 150.3V145.88H205.715V143.48H207.375V140.86H210.495V143.48H213.175V145.88H210.495V150.26C210.495 150.713 210.608 151.067 210.835 151.32C211.075 151.56 211.408 151.68 211.835 151.68C212.328 151.68 212.748 151.547 213.095 151.28L213.935 153.48Z" fill="#006FFD"/>
<path d="M154.099 114.4C149.099 109.1 141.599 101.2 130.499 89.6001C125.099 84.2001 129.099 75.4001 136.299 75.4001C142.099 75.4001 147.499 77.6001 151.499 81.7001C151.599 81.8001 154.599 85.4001 161.499 93.5001C162.299 94.3001 163.499 94.1001 164.199 93.3001C165.199 94.2001 165.499 95.6001 166.299 96.3001C164.099 98.1001 160.699 98.2001 158.799 95.9001L148.899 84.2001C145.499 80.9001 141.099 79.0001 136.299 79.0001C132.399 79.0001 129.899 83.6001 133.099 87.0001L156.799 112" fill="#006FFD"/>
<path d="M135.16 68.7501H130.285L129.355 71.0001H126.865L131.545 60.5001H133.945L138.64 71.0001H136.09L135.16 68.7501ZM134.395 66.9051L132.73 62.8851L131.065 66.9051H134.395Z" fill="#006FFD"/>
<path d="M164.199 93.2001C164.499 92.9001 164.599 92.5001 164.599 92.1001V82.6001L152.699 38.1001C150.999 31.8001 155.799 25.5001 162.399 25.5001C166.899 25.5001 170.899 28.6001 172.099 32.9001L180.999 64.1001L183.199 78.9001C182.299 79.1001 181.399 78.7001 181.099 77.6001L168.599 33.9001C167.699 30.8001 165.099 29.1001 162.399 29.1001C158.199 29.1001 155.099 33.1001 156.199 37.2001C168.999 85.1001 168.199 82.0001 168.199 82.4001V92.1001C168.199 93.9001 167.399 95.3001 166.299 96.3001C165.599 95.5001 165.199 94.1001 164.199 93.2001Z" fill="#006FFD"/>
<path d="M163.955 16.5401C164.555 16.7301 165.025 17.0501 165.365 17.5001C165.705 17.9401 165.875 18.4851 165.875 19.1351C165.875 20.0551 165.515 20.7651 164.795 21.2651C164.085 21.7551 163.045 22.0001 161.675 22.0001H156.245V11.5001H161.375C162.655 11.5001 163.635 11.7451 164.315 12.2351C165.005 12.7251 165.35 13.3901 165.35 14.2301C165.35 14.7401 165.225 15.1951 164.975 15.5951C164.735 15.9951 164.395 16.3101 163.955 16.5401ZM158.66 13.3301V15.8051H161.075C161.675 15.8051 162.13 15.7001 162.44 15.4901C162.75 15.2801 162.905 14.9701 162.905 14.5601C162.905 14.1501 162.75 13.8451 162.44 13.6451C162.13 13.4351 161.675 13.3301 161.075 13.3301H158.66ZM161.495 20.1701C162.135 20.1701 162.615 20.0651 162.935 19.8551C163.265 19.6451 163.43 19.3201 163.43 18.8801C163.43 18.0101 162.785 17.5751 161.495 17.5751H158.66V20.1701H161.495Z" fill="#006FFD"/>
<path d="M180.699 64.5001V29.1001C180.699 23.6001 185.199 19.0001 190.799 19.0001C196.399 19.0001 200.899 23.5001 200.899 29.1001V60.7001C200.299 66.3001 199.999 72.4001 198.799 77.9001C197.999 77.8001 197.299 77.1001 197.299 76.1001V29.1001C197.299 27.4001 196.599 25.8001 195.399 24.6001C191.399 20.6001 184.499 23.4001 184.499 29.1001V77.5001C184.499 78.5001 183.799 79.1001 182.999 79.3001" fill="#006FFD"/>
<path d="M191.27 15.1801C190.2 15.1801 189.23 14.9501 188.36 14.4901C187.5 14.0201 186.82 13.3751 186.32 12.5551C185.83 11.7251 185.585 10.7901 185.585 9.75006C185.585 8.71006 185.83 7.78006 186.32 6.96006C186.82 6.13006 187.5 5.48506 188.36 5.02506C189.23 4.55506 190.205 4.32006 191.285 4.32006C192.195 4.32006 193.015 4.48006 193.745 4.80006C194.485 5.12006 195.105 5.58006 195.605 6.18006L194.045 7.62006C193.335 6.80006 192.455 6.39006 191.405 6.39006C190.755 6.39006 190.175 6.53506 189.665 6.82506C189.155 7.10506 188.755 7.50006 188.465 8.01006C188.185 8.52006 188.045 9.10006 188.045 9.75006C188.045 10.4001 188.185 10.9801 188.465 11.4901C188.755 12.0001 189.155 12.4001 189.665 12.6901C190.175 12.9701 190.755 13.1101 191.405 13.1101C192.455 13.1101 193.335 12.6951 194.045 11.8651L195.605 13.3051C195.105 13.9151 194.485 14.3801 193.745 14.7001C193.005 15.0201 192.18 15.1801 191.27 15.1801Z" fill="#006FFD"/>
<path d="M200.899 61.6001V61.9001V61.8001L207.999 35.1001C209.399 29.7001 214.899 26.6001 220.299 28.0001C225.599 29.4001 228.899 34.9001 227.399 40.3001L219.699 68.7001L213.699 82.7001C212.999 82.3001 212.599 81.6001 212.799 80.6001C225.099 35.4001 224.199 38.9001 224.199 37.7001C224.199 32.8001 218.899 29.7001 214.599 32.2001C213.099 33.1001 212.099 34.4001 211.599 36.1001L200.799 76.3001C200.499 77.3001 198.899 77.6001 198.899 77.6001H198.799C200.099 72.0001 200.299 66.0001 200.899 60.4001V61.6001V61.6001Z" fill="#006FFD"/>
<path d="M214.245 13.5001H219.015C220.155 13.5001 221.16 13.7201 222.03 14.1601C222.91 14.5901 223.59 15.2001 224.07 15.9901C224.56 16.7801 224.805 17.7001 224.805 18.7501C224.805 19.8001 224.56 20.7201 224.07 21.5101C223.59 22.3001 222.91 22.9151 222.03 23.3551C221.16 23.7851 220.155 24.0001 219.015 24.0001H214.245V13.5001ZM218.895 22.0051C219.945 22.0051 220.78 21.7151 221.4 21.1351C222.03 20.5451 222.345 19.7501 222.345 18.7501C222.345 17.7501 222.03 16.9601 221.4 16.3801C220.78 15.7901 219.945 15.4951 218.895 15.4951H216.675V22.0051H218.895Z" fill="#006FFD"/>
<path d="M213.399 82.6001C214.199 83.0001 215.299 82.9001 215.899 81.9001L230.499 56.6001C233.299 51.8001 240.699 53.7001 240.699 59.4001C240.699 60.4001 240.399 61.3001 239.999 62.1001L229.699 79.9001C225.499 87.1001 223.299 95.3001 223.299 103.7C223.299 106.4 222.899 109.1 222.099 111.7C221.799 112.7 222.399 113.7 223.299 114C224.299 114.3 225.299 113.7 225.599 112.8C226.499 109.9 226.899 106.8 226.899 103.7C226.899 96.0001 228.899 88.4001 232.799 81.8001L243.199 63.9001C245.799 59.5001 244.099 53.9001 239.899 51.4001C235.499 48.9001 229.899 50.4001 227.399 54.7001L219.499 68.6001" fill="#006FFD"/>
<path d="M243.375 44.0501V46.0001H235.245V35.5001H243.18V37.4501H237.66V39.7301H242.535V41.6201H237.66V44.0501H243.375Z" fill="#006FFD"/>
<path d="M25.2409 121.441C24.1409 121.441 23.6409 120.641 23.2409 119.741C22.7409 118.841 23.0409 117.741 23.9409 117.241C24.8409 116.741 25.9409 117.041 26.4409 117.941C26.6409 118.241 26.7409 118.441 26.8409 118.641C27.5409 119.941 26.6409 121.441 25.2409 121.441Z" fill="#006FFD"/>
<path d="M88.9998 111.3L78.5998 122.2C72.6998 128.1 64.8998 131.3 56.5998 131.3H50.0998C42.6998 131.3 35.6998 128.5 30.2998 123.3C29.5998 122.6 28.3998 122.6 27.6998 123.3C26.9998 124 26.9998 125.2 27.6998 125.9C33.6998 131.7 41.5998 135 49.9998 135H56.4998C65.7998 135 74.4998 131.4 81.0998 124.8C81.0998 124.8 80.5998 125.3 91.5998 113.7" fill="#006FFD"/>
<path d="M48.4001 128.8C47.4001 128.8 46.6001 128 46.6001 127C46.6001 112.4 57.5001 99.9001 71.9001 98.0001C72.9001 97.9001 73.8001 98.6001 74.0001 99.6001C74.1001 100.6 73.4001 101.5 72.4001 101.7C59.7001 103.3 50.2001 114.2 50.2001 127C50.2001 128 49.4001 128.8 48.4001 128.8Z" fill="#006FFD"/>
<path d="M34.66 140H37.9V151.36H44.92V154H34.66V140ZM56.9722 148.66C56.9722 148.7 56.9522 148.98 56.9122 149.5H48.7722C48.9189 150.167 49.2655 150.693 49.8122 151.08C50.3589 151.467 51.0389 151.66 51.8522 151.66C52.4122 151.66 52.9055 151.58 53.3322 151.42C53.7722 151.247 54.1789 150.98 54.5522 150.62L56.2122 152.42C55.1989 153.58 53.7189 154.16 51.7722 154.16C50.5589 154.16 49.4855 153.927 48.5522 153.46C47.6189 152.98 46.8989 152.32 46.3922 151.48C45.8855 150.64 45.6322 149.687 45.6322 148.62C45.6322 147.567 45.8789 146.62 46.3722 145.78C46.8789 144.927 47.5655 144.267 48.4322 143.8C49.3122 143.32 50.2922 143.08 51.3722 143.08C52.4255 143.08 53.3789 143.307 54.2322 143.76C55.0855 144.213 55.7522 144.867 56.2322 145.72C56.7255 146.56 56.9722 147.54 56.9722 148.66ZM51.3922 145.44C50.6855 145.44 50.0922 145.64 49.6122 146.04C49.1322 146.44 48.8389 146.987 48.7322 147.68H54.0322C53.9255 147 53.6322 146.46 53.1522 146.06C52.6722 145.647 52.0855 145.44 51.3922 145.44ZM62.4694 143.48H65.2294V145.88H62.5494V154H59.4294V145.88H57.7694V143.48H59.4294V143C59.4294 141.773 59.7894 140.8 60.5094 140.08C61.2427 139.36 62.2694 139 63.5894 139C64.056 139 64.496 139.053 64.9094 139.16C65.336 139.253 65.6894 139.393 65.9694 139.58L65.1494 141.84C64.7894 141.587 64.3694 141.46 63.8894 141.46C62.9427 141.46 62.4694 141.98 62.4694 143.02V143.48ZM73.7238 153.48C73.4171 153.707 73.0371 153.88 72.5838 154C72.1438 154.107 71.6771 154.16 71.1838 154.16C69.9038 154.16 68.9104 153.833 68.2038 153.18C67.5104 152.527 67.1638 151.567 67.1638 150.3V145.88H65.5038V143.48H67.1638V140.86H70.2838V143.48H72.9638V145.88H70.2838V150.26C70.2838 150.713 70.3971 151.067 70.6237 151.32C70.8638 151.56 71.1971 151.68 71.6238 151.68C72.1171 151.68 72.5371 151.547 72.8838 151.28L73.7238 153.48Z" fill="#006FFD"/>
<path d="M91.0999 113.9C96.0999 108.6 103.6 100.7 114.7 89.1001C120.1 83.7001 116.1 74.9001 108.9 74.9001C103.1 74.9001 97.6999 77.1001 93.6999 81.2001C93.5999 81.3001 90.5999 84.9001 83.6999 93.0001C82.8999 93.8001 81.6999 93.6001 80.9999 92.8001C79.9999 93.7001 79.6999 95.1001 78.8999 95.8001C81.0999 97.6001 84.4999 97.7001 86.3999 95.4001L96.2999 83.7001C99.6999 80.4001 104.1 78.5001 108.9 78.5001C112.8 78.5001 115.3 83.1001 112.1 86.5001L88.3999 111.5" fill="#006FFD"/>
<path d="M111.675 62.4501V65.2251H116.535V67.1751H111.675V71.0001H109.245V60.5001H117.18V62.4501H111.675Z" fill="#006FFD"/>
<path d="M81 92.7001C80.7 92.4001 80.6 92.0001 80.6 91.6001V82.1001L92.5 37.6001C94.2 31.3001 89.4 25.0001 82.8 25.0001C78.3 25.0001 74.3 28.1001 73.1 32.4001L64.2 63.6001L62 78.4001C62.9 78.6001 63.8 78.2001 64.1 77.1001L76.6 33.4001C77.5 30.3001 80.1 28.6001 82.8 28.6001C87 28.6001 90.1 32.6001 89 36.7001C76.2 84.6001 77 81.5001 77 81.9001V91.6001C77 93.4001 77.8 94.8001 78.9 95.8001C79.6 95.0001 80 93.6001 81 92.7001Z" fill="#006FFD"/>
<path d="M87.34 16.5851H89.56V20.8451C88.99 21.2751 88.33 21.6051 87.58 21.8351C86.83 22.0651 86.075 22.1801 85.315 22.1801C84.225 22.1801 83.245 21.9501 82.375 21.4901C81.505 21.0201 80.82 20.3751 80.32 19.5551C79.83 18.7251 79.585 17.7901 79.585 16.7501C79.585 15.7101 79.83 14.7801 80.32 13.9601C80.82 13.1301 81.51 12.4851 82.39 12.0251C83.27 11.5551 84.26 11.3201 85.36 11.3201C86.28 11.3201 87.115 11.4751 87.865 11.7851C88.615 12.0951 89.245 12.5451 89.755 13.1351L88.195 14.5751C87.445 13.7851 86.54 13.3901 85.48 13.3901C84.81 13.3901 84.215 13.5301 83.695 13.8101C83.175 14.0901 82.77 14.4851 82.48 14.9951C82.19 15.5051 82.045 16.0901 82.045 16.7501C82.045 17.4001 82.19 17.9801 82.48 18.4901C82.77 19.0001 83.17 19.4001 83.68 19.6901C84.2 19.9701 84.79 20.1101 85.45 20.1101C86.15 20.1101 86.78 19.9601 87.34 19.6601V16.5851Z" fill="#006FFD"/>
<path d="M64.4998 64.0001V28.6001C64.4998 23.1001 59.9998 18.5001 54.3998 18.5001C48.7998 18.5001 44.2998 23.0001 44.2998 28.6001V60.2001C44.8998 65.8001 45.1998 71.9001 46.3998 77.4001C47.1998 77.3001 47.8998 76.6001 47.8998 75.6001V28.6001C47.8998 26.9001 48.5998 25.3001 49.7998 24.1001C53.7998 20.1001 60.6998 22.9001 60.6998 28.6001V77.0001C60.6998 78.0001 61.3998 78.6001 62.1998 78.8001" fill="#006FFD"/>
<path d="M59.875 4.50006V15.0001H57.445V10.6951H52.675V15.0001H50.245V4.50006H52.675V8.64006H57.445V4.50006H59.875Z" fill="#006FFD"/>
<path d="M44.3001 61.1001V61.4001V61.3001L37.2001 34.6001C35.8001 29.2001 30.3001 26.1001 24.9001 27.5001C19.6001 28.9001 16.3001 34.4001 17.8001 39.8001L25.5001 68.2001L31.5001 82.2001C32.2001 81.8001 32.6001 81.1001 32.4001 80.1001C20.1001 34.9001 21.0001 38.4001 21.0001 37.2001C21.0001 32.3001 26.3001 29.2001 30.6001 31.7001C32.1001 32.6001 33.1001 33.9001 33.6001 35.6001L44.4001 75.8001C44.7001 76.8001 46.3001 77.1001 46.3001 77.1001H46.4001C45.1001 71.5001 44.9001 65.5001 44.3001 59.9001V61.1001V61.1001Z" fill="#006FFD"/>
<path d="M24.245 12.5001H26.675V23.0001H24.245V12.5001Z" fill="#006FFD"/>
<path d="M31.7999 82.1001C30.9999 82.5001 29.8999 82.4001 29.2999 81.4001L14.6999 56.1001C11.8999 51.3001 4.49986 53.2001 4.49986 58.9001C4.49986 59.9001 4.79986 60.8001 5.19986 61.6001L15.4999 79.4001C19.6999 86.6001 21.8999 94.8001 21.8999 103.2C21.8999 105.9 22.2999 108.6 23.0999 111.2C23.3999 112.2 22.7999 113.2 21.8999 113.5C20.8999 113.8 19.8999 113.2 19.5999 112.3C18.6999 109.4 18.2999 106.3 18.2999 103.2C18.2999 95.5001 16.2999 87.9001 12.3999 81.3001L1.99986 63.4001C-0.600142 59.0001 1.09986 53.4001 5.29986 50.9001C9.69986 48.4001 15.2999 49.9001 17.7999 54.2001L25.6999 68.1001" fill="#006FFD"/>
<path d="M6.18 47.1801C5.47 47.1801 4.815 47.0501 4.215 46.7901C3.625 46.5201 3.14 46.1401 2.76 45.6501L4.11 44.0301C4.68 44.8001 5.33 45.1851 6.06 45.1851C7.05 45.1851 7.545 44.6051 7.545 43.4451V38.4501H3.855V36.5001H9.96V43.3101C9.96 44.6001 9.64 45.5701 9 46.2201C8.36 46.8601 7.42 47.1801 6.18 47.1801Z" fill="#006FFD"/>
</svg>
