<svg width="45" height="42" viewBox="0 0 45 42" fill="none" xmlns="http://www.w3.org/2000/svg">
<g clip-path="url(#clip0)">
<path d="M43.4329 40.9132L42.3356 36.7132C41.815 34.6758 40.2366 33.0372 38.1567 32.375L30.1097 29.8095C28.1473 29.0273 27.2494 26.0033 27.0554 24.8552C28.5507 23.6654 29.5128 21.9726 29.7439 20.125C29.7109 19.8094 29.7887 19.4923 29.9651 19.2237C30.2503 19.1554 30.4837 18.96 30.5924 18.6987C31.1189 17.4787 31.4494 16.1895 31.5727 14.875C31.5729 14.8035 31.5638 14.7324 31.5453 14.6632C31.4143 14.1524 31.1004 13.7017 30.6582 13.3892V8.74995C30.6582 5.9307 29.7584 4.77397 28.8111 4.1037C28.6302 2.74575 27.1104 0 21.5141 0C16.549 0.191297 12.5697 3.99902 12.3698 8.75003V13.3893C11.9276 13.7018 11.6138 14.1525 11.4828 14.6633C11.4643 14.7325 11.4551 14.8037 11.4553 14.8751C11.5784 16.1903 11.9089 17.48 12.4356 18.7006C12.5148 18.9479 12.7226 19.1381 12.9843 19.2029C13.0867 19.2518 13.2788 19.5056 13.2788 20.1251C13.5112 21.9781 14.4789 23.6747 15.9818 24.8642C15.7898 26.0104 14.8973 29.0327 12.9899 29.7956L4.87155 32.3751C2.79326 33.0372 1.21587 34.6741 0.694474 36.7099L-0.402839 40.9099C-0.527059 41.3783 -0.230955 41.8544 0.258549 41.9733C0.331675 41.9911 0.406858 42.0001 0.482298 42.0002H42.546C43.051 42 43.4603 41.6081 43.4602 41.1249C43.4601 41.0534 43.4509 40.9824 43.4329 40.9132Z" fill="#006FFD"/>
</g>
<defs>
<clipPath id="clip0">
<rect width="43.8926" height="42" fill="white" transform="translate(0.608398)"/>
</clipPath>
</defs>
</svg>
