<svg width="42" height="39" viewBox="0 0 42 39" fill="none" xmlns="http://www.w3.org/2000/svg">
<path d="M3.20914 2.28516H10.317V0L0.839844 0V9.14062H3.20914V2.28516Z" fill="#006FFD"/>
<path d="M31.7998 0V2.28516H38.9077V9.14062H41.277V0L31.7998 0Z" fill="#006FFD"/>
<path d="M38.9077 36.7148H31.7998V39H41.277V29.8594H38.9077V36.7148Z" fill="#006FFD"/>
<path d="M3.20914 29.8594H0.839844V39H10.317V36.7148H3.20914V29.8594Z" fill="#006FFD"/>
<path d="M5.65723 4.57031V15.9961H17.5038V9.14062H19.8732V6.85547H17.5038V4.57031H5.65723ZM15.1345 13.7109H8.02655V6.85547H15.1345V13.7109Z" fill="#006FFD"/>
<path d="M36.4596 34.2773V22.8516H31.7208V20.5664H29.3514V22.8516H22.2432V25.1367H24.6126V27.4219H22.2432V29.707H24.6126V34.2773H36.4596ZM26.982 25.1367H34.0902V31.9922H26.982V25.1367Z" fill="#006FFD"/>
<path d="M12.7653 20.5664H17.5041V18.2812H5.65723V20.5664H10.396V22.8516H8.02659V25.1367H10.396V29.707H8.02659V31.9922H10.396V34.2773H22.2428V31.9922H19.8734V29.707H17.5041V31.9922H12.7653V29.707H15.1347V27.4219H12.7653V20.5664Z" fill="#006FFD"/>
<path d="M10.3965 9.14062H12.766V11.4258H10.3965V9.14062Z" fill="#006FFD"/>
<path d="M29.3516 9.14062H31.7208V11.4258H29.3516V9.14062Z" fill="#006FFD"/>
<path d="M31.7205 15.9961H36.4594V4.57031H24.6123V15.9961H29.3511V18.2812H31.7205V15.9961ZM26.9817 13.7109V6.85547H34.0899V13.7109H26.9817Z" fill="#006FFD"/>
<path d="M36.4594 20.5664V18.2812C35.8861 18.2812 32.2975 18.2812 31.7202 18.2812V20.5664H36.4594Z" fill="#006FFD"/>
<path d="M29.3516 27.4219H31.7208V29.707H29.3516V27.4219Z" fill="#006FFD"/>
<path d="M19.874 25.1367H22.2437V27.4219H19.874V25.1367Z" fill="#006FFD"/>
<path d="M15.1348 27.4219H17.5044C17.5044 26.869 17.5044 23.4083 17.5044 22.8516H15.1348V27.4219Z" fill="#006FFD"/>
<path d="M17.5044 20.5664H19.8734V22.8516H17.5044V20.5664Z" fill="#006FFD"/>
<path d="M8.02637 25.1367H5.65723V29.707H8.02637C8.02637 29.1542 8.02637 25.6934 8.02637 25.1367Z" fill="#006FFD"/>
<path d="M5.65723 31.9922H8.02637V34.2773H5.65723V31.9922Z" fill="#006FFD"/>
<path d="M19.874 4.57031H22.2437V6.85547H19.874V4.57031Z" fill="#006FFD"/>
<path d="M19.874 13.7109H22.2437C22.2437 13.1581 22.2437 9.69733 22.2437 9.14062H19.874V13.7109Z" fill="#006FFD"/>
<path d="M22.2434 18.2812V15.9961H19.874V20.5664H29.3514V18.2812H22.2434Z" fill="#006FFD"/>
</svg>
