<svg width="29" height="43" viewBox="0 0 29 43" fill="none" xmlns="http://www.w3.org/2000/svg">
<path d="M24.1005 0L4.32937 0C2.11871 0 0.320312 1.73447 0.320312 3.86656V39.1334C0.320312 41.2655 2.11871 43 4.32937 43H24.1008C26.3111 43 28.1099 41.2655 28.1099 39.1334V3.86656C28.1095 1.73447 26.3111 0 24.1005 0ZM4.32937 2.51953H24.1008C24.8709 2.51953 25.4975 3.12383 25.4975 3.86656V6.78961H2.93269V3.86656C2.93269 3.12383 3.55926 2.51953 4.32937 2.51953ZM25.4971 30.1461H2.93269V9.30914H25.4975V30.1461H25.4971ZM24.1005 40.4805H4.32937C3.55926 40.4805 2.93269 39.8762 2.93269 39.1334V32.6657H25.4975V39.1334C25.4971 39.8762 24.8706 40.4805 24.1005 40.4805Z" fill="#006FFD"/>
<path d="M12.6052 5.92383H15.8252C16.5464 5.92383 17.1316 5.35989 17.1316 4.66406C17.1316 3.96857 16.5464 3.4043 15.8252 3.4043H12.6052C11.8836 3.4043 11.2988 3.96857 11.2988 4.66406C11.2988 5.35989 11.8836 5.92383 12.6052 5.92383Z" fill="#006FFD"/>
<path d="M16.2659 36.5162C16.2659 37.6089 15.3475 38.4947 14.2145 38.4947C13.0815 38.4947 12.1631 37.6089 12.1631 36.5162C12.1631 35.4234 13.0815 34.5376 14.2145 34.5376C15.3475 34.5376 16.2659 35.4234 16.2659 36.5162Z" fill="#006FFD"/>
<path d="M12.1337 17.3188C12.8194 17.8575 13.2171 18.7154 13.2249 19.673C13.2328 20.6549 12.8191 21.5807 12.118 22.1489C11.5659 22.5967 11.4945 23.3913 11.9588 23.9237C12.2173 24.2203 12.5871 24.3729 12.9593 24.3729C13.2562 24.3729 13.5546 24.2761 13.7995 24.0773C15.1088 23.0157 15.8514 21.4032 15.8375 19.6533C15.8235 17.9428 15.0751 16.3796 13.7838 15.3652C13.2246 14.9256 12.4017 15.0066 11.9459 15.5463C11.4904 16.0856 11.5744 16.8792 12.1337 17.3188Z" fill="#006FFD"/>
<path d="M8.0471 22.3389C8.2852 22.517 8.56719 22.6033 8.84679 22.6033C9.2366 22.6033 9.62233 22.436 9.87983 22.1158C11.0843 20.6188 11.0986 18.8358 9.91827 17.3464C9.48049 16.7936 8.66073 16.6883 8.08757 17.1105C7.51442 17.5331 7.40489 18.3237 7.84266 18.8765C8.29541 19.4473 8.2869 19.986 7.81579 20.5713C7.3736 21.1208 7.477 21.9124 8.0471 22.3389Z" fill="#006FFD"/>
<path d="M15.9848 14.5293C17.4253 15.689 18.2604 17.5452 18.2764 19.6222C18.2927 21.7392 17.4304 23.7262 15.9701 24.9378C15.4232 25.3915 15.3613 26.187 15.8314 26.7142C16.0899 27.0039 16.4549 27.1525 16.8222 27.1525C17.124 27.1525 17.427 27.0525 17.6737 26.8478C19.7085 25.1596 20.9106 22.4514 20.8885 19.6038C20.8671 16.7847 19.6898 14.2304 17.6587 12.5953C17.1049 12.1492 16.2814 12.221 15.8191 12.7548C15.3568 13.2889 15.431 14.0834 15.9848 14.5293Z" fill="#006FFD"/>
</svg>
