<svg id="Layer_1" data-name="Layer 1" xmlns="http://www.w3.org/2000/svg" viewBox="0 0 6177.28 1335.6"><defs><style>.cls-1{fill:#fff;}</style></defs><path class="cls-1" d="M4362.9,7470.81V6903.7H4930l70.89,70.89v141.78L4930,7187.26l70.89,70.89v141.77L4930,7470.81Zm496.22-354.44v-70.89H4504.68v70.89Zm0,212.67v-70.89H4504.68V7329Z" transform="translate(-4111.36 -6410.31)"/><path class="cls-1" d="M5928.13,7470.81l-70.89-70.89V6974.59l70.89-70.89h496.22l70.89,70.89v425.33l-70.89,70.89ZM6353.46,7329V7045.48H5999V7329Z" transform="translate(-4111.36 -6410.31)"/><path class="cls-1" d="M6566.13,7470.81V6903.7h496.22l141.78,141.78v425.33H7062.35V7329H6707.9v141.77Zm496.22-283.55V7045.48H6707.9v141.78Z" transform="translate(-4111.36 -6410.31)"/><path class="cls-1" d="M7983.9,7470.81V7329h496.22v-70.89H7983.9V7045.48l141.78-141.78H8621.9v141.78H8125.68v70.89H8621.9V7329l-141.78,141.77Z" transform="translate(-4111.36 -6410.31)"/><path class="cls-1" d="M8763.68,7470.81l-70.89-70.89V6903.7h638v141.78H8834.57v70.89H9259.9v141.78H8834.57V7329h496.22v141.77Z" transform="translate(-4111.36 -6410.31)"/><path class="cls-1" d="M9472.57,7470.81l-70.89-70.89V6903.7h638v141.78H9543.45V7329H9897.9v-70.89H9614.34V7116.37h425.34v354.44Z" transform="translate(-4111.36 -6410.31)"/><polygon class="cls-1" points="3801.65 564.28 3801.65 989.61 3730.76 1060.5 3163.65 1060.5 3163.65 715.03 3313.94 715.03 3313.94 921.56 3659.88 918.72 3659.88 635.17 3163.65 638.95 3163.65 493.39 3730.76 493.39 3801.65 564.28"/><path class="cls-1" d="M10103.45,6648.48h0l-4972.68-5.59L4905,6410.31l-92.59,80,36.19,36.28,246.22,246.69h4961.27l102.08,102.08v630l-104,104.44H5910.55v.94l-287.34-287.33h61.91l70.89-70.89V7039.86l-141.78-141.78H5118v567.11h141.78V7323.42h189.88l419.51,409h0l4221,13.47,198.48-180.34V6821.53ZM5614.23,7181.64H5259.79V7039.86h354.44Z" transform="translate(-4111.36 -6410.31)"/><polygon class="cls-1" points="1463.06 1195.75 1581.07 1316.17 159.73 1317.11 146.03 1303.41 2.83 1160.21 0 1157.38 0 400.76 3.31 397.45 171.55 229.68 172.02 229.21 682.89 229.21 806.24 359.64 225.42 359.64 130.43 454.63 130.43 1114.84 202.27 1186.67 1463.06 1195.75"/></svg>