<svg width="48" height="48" viewBox="0 0 48 48" fill="none" xmlns="http://www.w3.org/2000/svg">
<path d="M22.822 17.9155V20.6518H17.197V23.4643H31.2595V20.6518H25.6345V17.9155H32.8705L37.2279 13.559V0H11.2285V13.559L15.5858 17.9155H22.822ZM14.041 2.8125H34.4153V12.3938L31.7057 15.103H16.7507L14.041 12.3938V2.8125Z" fill="white"/>
<path d="M24.2283 37.3851C21.3015 37.3851 18.9204 39.766 18.9204 42.6925C18.9204 45.619 21.3015 48 24.2283 48C27.155 48 29.536 45.6191 29.536 42.6926C29.536 39.7661 27.1549 37.3851 24.2283 37.3851ZM24.2283 45.1875C22.8523 45.1875 21.7329 44.0683 21.7329 42.6926C21.7329 41.3169 22.8523 40.1977 24.2283 40.1977C25.6041 40.1977 26.7235 41.3169 26.7235 42.6926C26.7235 44.0683 25.604 45.1875 24.2283 45.1875Z" fill="white"/>
<path d="M5.30775 37.3851C2.38097 37.3851 0 39.766 0 42.6926C0 45.6192 2.38097 48 5.30775 48C8.23453 48 10.6156 45.6191 10.6156 42.6926C10.6156 39.7661 8.23453 37.3851 5.30775 37.3851ZM5.30775 45.1875C3.93188 45.1875 2.8125 44.0683 2.8125 42.6926C2.8125 41.3169 3.93188 40.1977 5.30775 40.1977C6.68372 40.1977 7.80309 41.3169 7.80309 42.6926C7.80309 44.0683 6.68372 45.1875 5.30775 45.1875Z" fill="white"/>
<path d="M42.6921 37.3851C39.7653 37.3851 37.3843 39.766 37.3843 42.6925C37.3843 45.619 39.7653 48 42.6921 48C45.6189 48 48 45.6191 48 42.6926C48 39.7661 45.6189 37.3851 42.6921 37.3851ZM42.6921 45.1875C41.3162 45.1875 40.1968 44.0683 40.1968 42.6926C40.1968 41.3169 41.3162 40.1977 42.6921 40.1977C44.0681 40.1977 45.1875 41.3169 45.1875 42.6926C45.1875 44.0683 44.0681 45.1875 42.6921 45.1875Z" fill="white"/>
<path d="M6.71387 31.8759H22.8219V34.6346H25.6344V31.8759H41.2858V34.6346H44.0983V29.0634H25.6344V26.2598H22.8219V29.0634H3.90137V34.6346H6.71387V31.8759Z" fill="white"/>
</svg>
