<svg width="48" height="48" viewBox="0 0 48 48" fill="none" xmlns="http://www.w3.org/2000/svg">
<path d="M45 12H3C1.346 12 0 10.654 0 9V3C0 1.346 1.346 0 3 0H45C46.654 0 48 1.346 48 3V9C48 10.654 46.654 12 45 12ZM3 2C2.448 2 2 2.448 2 3V9C2 9.552 2.448 10 3 10H45C45.552 10 46 9.552 46 9V3C46 2.448 45.552 2 45 2H3Z" fill="white"/>
<path d="M19 48H3C1.346 48 0 46.654 0 45V19C0 17.346 1.346 16 3 16H19C20.654 16 22 17.346 22 19V45C22 46.654 20.654 48 19 48ZM3 18C2.448 18 2 18.448 2 19V45C2 45.552 2.448 46 3 46H19C19.552 46 20 45.552 20 45V19C20 18.448 19.552 18 19 18H3Z" fill="white"/>
<path d="M45 30H29C27.346 30 26 28.654 26 27V19C26 17.346 27.346 16 29 16H45C46.654 16 48 17.346 48 19V27C48 28.654 46.654 30 45 30ZM29 18C28.448 18 28 18.448 28 19V27C28 27.552 28.448 28 29 28H45C45.552 28 46 27.552 46 27V19C46 18.448 45.552 18 45 18H29Z" fill="white"/>
<path d="M45 48H29C27.346 48 26 46.654 26 45V37C26 35.346 27.346 34 29 34H45C46.654 34 48 35.346 48 37V45C48 46.654 46.654 48 45 48ZM29 36C28.448 36 28 36.448 28 37V45C28 45.552 28.448 46 29 46H45C45.552 46 46 45.552 46 45V37C46 36.448 45.552 36 45 36H29Z" fill="white"/>
</svg>
