<svg width="48" height="48" viewBox="0 0 48 48" fill="none" xmlns="http://www.w3.org/2000/svg">
<path d="M46.9565 0H1.04351C0.467511 0 0 0.467511 0 1.04351V46.9565C0 47.5325 0.467511 48 1.04351 48H9.3913C9.9673 48 10.4348 47.5325 10.4348 46.9565V45.913H37.5652V46.9565C37.5652 47.5325 38.0327 48 38.6087 48H46.9565C47.5325 48 48 47.5325 48 46.9565V1.04351C48 0.467511 47.5325 0 46.9565 0ZM45.913 45.913H39.6521V44.8695C39.6521 44.2935 39.1846 43.826 38.6086 43.826H9.3913C8.8153 43.826 8.34779 44.2935 8.34779 44.8695V45.913H2.08692V2.08692H45.913V45.913Z" fill="white"/>
<path d="M38.6086 10.4348H9.39117C8.81517 10.4348 8.34766 10.9023 8.34766 11.4783V44.8696C8.34766 45.4456 8.81517 45.9131 9.39117 45.9131H38.6086C39.1846 45.9131 39.6521 45.4456 39.6521 44.8696V11.4782C39.652 10.9022 39.1846 10.4348 38.6086 10.4348ZM37.5651 43.8261H10.4347V12.5217H37.5651V43.8261Z" fill="white"/>
<path d="M24 10.4348C23.4241 10.4348 22.9565 10.9023 22.9565 11.4783V44.8696C22.9565 45.4456 23.4241 45.9131 24 45.9131C24.576 45.9131 25.0436 45.4456 25.0436 44.8696V11.4782C25.0436 10.9022 24.576 10.4348 24 10.4348Z" fill="white"/>
<path d="M42.7828 22.9565C43.3591 22.9565 43.8263 22.4893 43.8263 21.913C43.8263 21.3367 43.3591 20.8695 42.7828 20.8695C42.2065 20.8695 41.7393 21.3367 41.7393 21.913C41.7393 22.4893 42.2065 22.9565 42.7828 22.9565Z" fill="white"/>
<path d="M42.7828 27.1305C43.3591 27.1305 43.8263 26.6633 43.8263 26.087C43.8263 25.5106 43.3591 25.0435 42.7828 25.0435C42.2065 25.0435 41.7393 25.5106 41.7393 26.087C41.7393 26.6633 42.2065 27.1305 42.7828 27.1305Z" fill="white"/>
<path d="M20.5649 6.56768L18.478 4.48075C18.071 4.0738 17.4094 4.0738 17.0025 4.48075L14.9156 6.56768C14.5086 6.97463 14.5086 7.63623 14.9156 8.04319C15.3225 8.45014 15.9841 8.45014 16.3911 8.04319L17.7392 6.69289L19.0874 8.04319C19.2919 8.24559 19.559 8.34792 19.8261 8.34792C20.0933 8.34792 20.3604 8.24569 20.5649 8.04319C20.9719 7.63623 20.9719 6.97463 20.5649 6.56768Z" fill="white"/>
<path d="M33.0846 4.48075C32.6776 4.0738 32.016 4.0738 31.609 4.48075L30.2609 5.82889L28.9106 4.48075C28.5037 4.0738 27.8421 4.0738 27.4351 4.48075C27.0281 4.88771 27.0281 5.54931 27.4351 5.95626L29.522 8.04319C29.7266 8.24559 29.9936 8.34792 30.2608 8.34792C30.528 8.34792 30.795 8.24569 30.9975 8.04319L33.0845 5.95626C33.4915 5.54921 33.4915 4.88771 33.0846 4.48075Z" fill="white"/>
</svg>
