<svg width="48" height="48" viewBox="0 0 48 48" fill="none" xmlns="http://www.w3.org/2000/svg">
<path d="M44.625 4.03604H41.4923V2.87195C41.4923 2.72276 41.4331 2.57969 41.3276 2.4742C41.2221 2.36871 41.079 2.30945 40.9298 2.30945H23.9487C23.7995 2.30945 23.6565 2.36871 23.551 2.4742C23.4455 2.57969 23.3862 2.72276 23.3862 2.87195V4.03604H19.3161C18.6698 4.03671 18.0502 4.29373 17.5932 4.75071C17.1363 5.20768 16.8792 5.82728 16.8786 6.47354V10.5265C15.6459 9.57831 14.1723 8.99429 12.6248 8.84063C11.0772 8.68698 9.51755 8.96985 8.12252 9.65718C6.72748 10.3445 5.55285 11.4088 4.73171 12.7296C3.91057 14.0503 3.47575 15.5746 3.47653 17.1297V19.6509C3.15857 19.7623 2.87367 19.9517 2.64798 20.2018C2.42229 20.4519 2.26304 20.7547 2.18484 21.0824C2.03935 21.6773 2.11562 22.3049 2.3994 22.8476C2.68317 23.3903 3.15499 23.8111 3.72656 24.031V24.569C3.72756 26.0327 4.12119 27.4693 4.86641 28.7291C5.61164 29.9889 6.68117 31.0257 7.9635 31.7315V34.2026L3.52603 36.0964C3.51562 36.1009 3.50541 36.1058 3.49538 36.1106C2.78286 36.4698 2.174 37.0052 1.72666 37.6659C1.27932 38.3267 1.00834 39.0908 0.939469 39.8858C0.938156 39.9012 0.9375 39.9169 0.9375 39.9326V45.1284C0.9375 45.2775 0.996763 45.4206 1.10225 45.5261C1.20774 45.6316 1.35082 45.6909 1.5 45.6909H22.7596C22.9088 45.6909 23.0519 45.6316 23.1573 45.5261C23.2628 45.4206 23.3221 45.2775 23.3221 45.1284V40.0198H44.625C45.2713 40.0191 45.8908 39.7621 46.3478 39.3051C46.8048 38.8482 47.0618 38.2286 47.0625 37.5823V6.47335C47.0618 5.82714 46.8047 5.2076 46.3477 4.75067C45.8908 4.29374 45.2712 4.03674 44.625 4.03604ZM24.5112 3.43445H40.3673V5.53304H24.5112V3.43445ZM4.60153 17.1297C4.60153 15.2188 5.36065 13.3861 6.7119 12.0348C8.06315 10.6836 9.89583 9.92448 11.8068 9.92448C13.7177 9.92448 15.5504 10.6836 16.9017 12.0348C18.2529 13.3861 19.012 15.2188 19.012 17.1297V19.6906C17.6182 19.8413 13.3631 20.0686 9.94641 17.803C12.2941 17.4901 15.1559 16.7694 17.2784 15.1416C17.3387 15.0973 17.3896 15.0414 17.428 14.9772C17.4665 14.9129 17.4917 14.8417 17.5022 14.7676C17.5128 14.6935 17.5085 14.6181 17.4895 14.5457C17.4705 14.4733 17.4373 14.4054 17.3918 14.346C17.3462 14.2866 17.2893 14.2369 17.2243 14.1998C17.1593 14.1627 17.0876 14.1389 17.0133 14.1299C16.939 14.1208 16.8636 14.1267 16.7917 14.1472C16.7197 14.1676 16.6525 14.2022 16.594 14.249C12.7328 17.2104 5.83472 16.8981 5.76591 16.8944C5.61785 16.8869 5.4728 16.9381 5.36224 17.0369C5.25167 17.1356 5.18449 17.274 5.17528 17.4219L5.00653 20.2L4.6395 20.0116C4.63002 20.0068 4.62174 19.9999 4.61525 19.9915C4.60877 19.9831 4.60424 19.9733 4.602 19.9629L4.60153 17.1297ZM4.85156 24.569V23.6051C4.85158 23.4728 4.80492 23.3446 4.71978 23.2433C4.63464 23.1419 4.51648 23.0738 4.38609 23.051C4.19878 23.0177 4.02027 22.9463 3.86161 22.8413C3.70294 22.7364 3.56748 22.6 3.46359 22.4406C3.3597 22.2812 3.28959 22.1022 3.25758 21.9146C3.22558 21.7271 3.23235 21.535 3.2775 21.3502C3.3077 21.2167 3.36874 21.0921 3.45574 20.9865C3.54274 20.8808 3.65328 20.797 3.7785 20.7417C3.87625 20.8528 3.99389 20.9446 4.12538 21.0125L5.04413 21.4841C5.14951 21.5383 5.26664 21.5656 5.38511 21.5636C5.50358 21.5616 5.61973 21.5304 5.72324 21.4727C5.82675 21.4151 5.91442 21.3327 5.97847 21.2331C6.04251 21.1334 6.08095 21.0194 6.09037 20.9013C6.09037 20.8977 6.09094 20.8943 6.09113 20.8907L6.26522 18.0327C6.72459 18.037 7.43503 18.0295 8.29866 17.9694C12.8929 21.8776 19.3946 20.7864 19.6727 20.7375C19.731 20.7268 19.7872 20.7069 19.8392 20.6785C20.0062 20.7129 20.1597 20.7945 20.2818 20.9135C20.4038 21.0326 20.4891 21.1841 20.5276 21.3502C20.5728 21.535 20.5796 21.7271 20.5476 21.9147C20.5157 22.1022 20.4456 22.2812 20.3417 22.4406C20.2378 22.6 20.1023 22.7364 19.9436 22.8414C19.785 22.9464 19.6064 23.0177 19.4191 23.051C19.2887 23.0738 19.1705 23.1419 19.0854 23.2433C19.0003 23.3446 18.9536 23.4728 18.9536 23.6051V24.569C18.9468 26.4345 18.201 28.2213 16.8794 29.5381C15.5579 30.8548 13.7684 31.5941 11.9028 31.5941C10.0373 31.5941 8.24777 30.8548 6.92623 29.5381C5.60468 28.2213 4.85883 26.4345 4.85203 24.569H4.85156ZM16.8788 31.0509V34.4511L16.2961 34.2024V31.461C16.4965 31.3328 16.6908 31.196 16.8788 31.0509ZM15.1711 32.0625V34.0821C13.2225 34.8823 11.0371 34.8823 9.0885 34.0821V32.2457C11.064 32.9698 13.2427 32.9041 15.1711 32.0625ZM22.1971 44.566H2.0625V39.9563C2.11813 39.3605 2.32349 38.7884 2.6595 38.2932C2.99551 37.798 3.45126 37.3959 3.98438 37.1241L8.6685 35.125C10.8868 36.0343 13.3738 36.0343 15.592 35.125L20.2762 37.1242C20.8092 37.3961 21.2647 37.7983 21.6006 38.2934C21.9364 38.7886 22.1416 39.3606 22.1971 39.9563V44.566ZM45.9375 37.5825C45.9372 37.9305 45.7988 38.2642 45.5527 38.5102C45.3066 38.7563 44.973 38.8947 44.625 38.895H23.1236C22.9368 38.2966 22.6317 37.7418 22.2264 37.2635C21.8211 36.7852 21.3239 36.3932 20.7642 36.1106C20.7542 36.1055 20.744 36.1013 20.7336 36.0964L18.0038 34.9313V30.0049C19.3411 28.5102 20.0798 26.5746 20.0782 24.569V24.031C20.6497 23.8111 21.1215 23.3904 21.4053 22.8477C21.6891 22.305 21.7654 21.6775 21.6199 21.0826C21.5338 20.7217 21.3498 20.3916 21.0882 20.1286C20.8266 19.8656 20.4974 19.6799 20.137 19.592V17.1297C20.1387 15.076 19.3786 13.0945 18.0038 11.5688V6.47335C18.0042 6.12536 18.1426 5.7917 18.3886 5.54563C18.6347 5.29956 18.9683 5.16118 19.3163 5.16085H23.3865V6.09535C23.3865 6.24454 23.4458 6.38761 23.5513 6.4931C23.6567 6.59859 23.7998 6.65785 23.949 6.65785H40.9298C41.079 6.65785 41.2221 6.59859 41.3276 6.4931C41.4331 6.38761 41.4923 6.24454 41.4923 6.09535V5.16104H44.625C44.973 5.16136 45.3066 5.29975 45.5527 5.54582C45.7988 5.79189 45.9372 6.12554 45.9375 6.47354V37.5825Z" fill="white"/>
<path d="M41.8673 20.7831H37.7549C37.6057 20.7831 37.4626 20.8423 37.3571 20.9478C37.2516 21.0533 37.1924 21.1964 37.1924 21.3456C37.1924 21.4948 37.2516 21.6378 37.3571 21.7433C37.4626 21.8488 37.6057 21.9081 37.7549 21.9081H41.8673C42.0165 21.9081 42.1596 21.8488 42.2651 21.7433C42.3706 21.6378 42.4298 21.4948 42.4298 21.3456C42.4298 21.1964 42.3706 21.0533 42.2651 20.9478C42.1596 20.8423 42.0165 20.7831 41.8673 20.7831Z" fill="white"/>
<path d="M33.9521 21.9081H35.3317C35.4809 21.9081 35.6239 21.8488 35.7294 21.7433C35.8349 21.6378 35.8942 21.4948 35.8942 21.3456C35.8942 21.1964 35.8349 21.0533 35.7294 20.9478C35.6239 20.8423 35.4809 20.7831 35.3317 20.7831H33.9521C33.803 20.7831 33.6599 20.8423 33.5544 20.9478C33.4489 21.0533 33.3896 21.1964 33.3896 21.3456C33.3896 21.4948 33.4489 21.6378 33.5544 21.7433C33.6599 21.8488 33.803 21.9081 33.9521 21.9081Z" fill="white"/>
<path d="M41.8671 26.8671H40.4707C40.3215 26.8671 40.1784 26.9263 40.073 27.0318C39.9675 27.1373 39.9082 27.2804 39.9082 27.4296C39.9082 27.5787 39.9675 27.7218 40.073 27.8273C40.1784 27.9328 40.3215 27.9921 40.4707 27.9921H41.8671C42.0163 27.9921 42.1594 27.9328 42.2649 27.8273C42.3703 27.7218 42.4296 27.5787 42.4296 27.4296C42.4296 27.2804 42.3703 27.1373 42.2649 27.0318C42.1594 26.9263 42.0163 26.8671 41.8671 26.8671Z" fill="white"/>
<path d="M38.5255 27.9921C38.6746 27.9921 38.8177 27.9328 38.9232 27.8273C39.0287 27.7218 39.088 27.5787 39.088 27.4296C39.088 27.2804 39.0287 27.1373 38.9232 27.0318C38.8177 26.9263 38.6746 26.8671 38.5255 26.8671H31.0762C30.927 26.8671 30.7839 26.9263 30.6784 27.0318C30.5729 27.1373 30.5137 27.2804 30.5137 27.4296C30.5137 27.5787 30.5729 27.7218 30.6784 27.8273C30.7839 27.9328 30.927 27.9921 31.0762 27.9921H38.5255Z" fill="white"/>
<path d="M29.1037 26.8671H28.6011C28.4519 26.8671 28.3088 26.9263 28.2033 27.0318C28.0978 27.1373 28.0386 27.2804 28.0386 27.4296C28.0386 27.5787 28.0978 27.7218 28.2033 27.8273C28.3088 27.9328 28.4519 27.9921 28.6011 27.9921H29.1037C29.2529 27.9921 29.3959 27.9328 29.5014 27.8273C29.6069 27.7218 29.6662 27.5787 29.6662 27.4296C29.6662 27.2804 29.6069 27.1373 29.5014 27.0318C29.3959 26.9263 29.2529 26.8671 29.1037 26.8671Z" fill="white"/>
<path d="M22.9888 26.8671C22.8396 26.8671 22.6965 26.9263 22.591 27.0318C22.4855 27.1373 22.4263 27.2804 22.4263 27.4296C22.4263 27.5787 22.4855 27.7218 22.591 27.8273C22.6965 27.9328 22.8396 27.9921 22.9888 27.9921H26.178C26.3271 27.9921 26.4702 27.9328 26.5757 27.8273C26.6812 27.7218 26.7405 27.5787 26.7405 27.4296C26.7405 27.2804 26.6812 27.1373 26.5757 27.0318C26.4702 26.9263 26.3271 26.8671 26.178 26.8671H22.9888Z" fill="white"/>
<path d="M41.8673 32.4902H38.6484C38.4993 32.4902 38.3562 32.5495 38.2507 32.655C38.1452 32.7605 38.0859 32.9036 38.0859 33.0527C38.0859 33.2019 38.1452 33.345 38.2507 33.4505C38.3562 33.556 38.4993 33.6152 38.6484 33.6152H41.8673C42.0165 33.6152 42.1596 33.556 42.2651 33.4505C42.3706 33.345 42.4298 33.2019 42.4298 33.0527C42.4298 32.9036 42.3706 32.7605 42.2651 32.655C42.1596 32.5495 42.0165 32.4902 41.8673 32.4902Z" fill="white"/>
<path d="M36.6295 32.4902H36.2251C36.0759 32.4902 35.9328 32.5495 35.8273 32.655C35.7219 32.7605 35.6626 32.9036 35.6626 33.0527C35.6626 33.2019 35.7219 33.345 35.8273 33.4505C35.9328 33.556 36.0759 33.6152 36.2251 33.6152H36.6293C36.7784 33.6152 36.9215 33.556 37.027 33.4505C37.1325 33.345 37.1918 33.2019 37.1918 33.0527C37.1918 32.9036 37.1325 32.7605 37.027 32.655C36.9215 32.5495 36.7784 32.4902 36.6293 32.4902H36.6295Z" fill="white"/>
<path d="M34.642 32.4902H31.5845C31.4353 32.4902 31.2922 32.5495 31.1867 32.655C31.0812 32.7605 31.022 32.9036 31.022 33.0527C31.022 33.2019 31.0812 33.345 31.1867 33.4505C31.2922 33.556 31.4353 33.6152 31.5845 33.6152H34.6421C34.7913 33.6152 34.9344 33.556 35.0399 33.4505C35.1454 33.345 35.2046 33.2019 35.2046 33.0527C35.2046 32.9036 35.1454 32.7605 35.0399 32.655C34.9344 32.5495 34.7913 32.4902 34.6421 32.4902H34.642Z" fill="white"/>
<path d="M29.1036 32.4902H22.9888C22.8396 32.4902 22.6965 32.5495 22.591 32.655C22.4855 32.7605 22.4263 32.9036 22.4263 33.0527C22.4263 33.2019 22.4855 33.345 22.591 33.4505C22.6965 33.556 22.8396 33.6152 22.9888 33.6152H29.1036C29.2528 33.6152 29.3959 33.556 29.5014 33.4505C29.6068 33.345 29.6661 33.2019 29.6661 33.0527C29.6661 32.9036 29.6068 32.7605 29.5014 32.655C29.3959 32.5495 29.2528 32.4902 29.1036 32.4902Z" fill="white"/>
<path d="M41.8674 15.9938H41.5044C41.3552 15.9938 41.2121 16.053 41.1066 16.1585C41.0012 16.264 40.9419 16.4071 40.9419 16.5563C40.9419 16.7055 41.0012 16.8485 41.1066 16.954C41.2121 17.0595 41.3552 17.1188 41.5044 17.1188H41.8674C42.0166 17.1188 42.1597 17.0595 42.2651 16.954C42.3706 16.8485 42.4299 16.7055 42.4299 16.5563C42.4299 16.4071 42.3706 16.264 42.2651 16.1585C42.1597 16.053 42.0166 15.9938 41.8674 15.9938Z" fill="white"/>
<path d="M35.0942 17.1188H39.0812C39.2304 17.1188 39.3735 17.0595 39.479 16.954C39.5845 16.8485 39.6437 16.7055 39.6437 16.5563C39.6437 16.4071 39.5845 16.264 39.479 16.1585C39.3735 16.053 39.2304 15.9938 39.0812 15.9938H35.0942C34.9451 15.9938 34.802 16.053 34.6965 16.1585C34.591 16.264 34.5317 16.4071 34.5317 16.5563C34.5317 16.7055 34.591 16.8485 34.6965 16.954C34.802 17.0595 34.9451 17.1188 35.0942 17.1188Z" fill="white"/>
<path d="M41.8674 11.3063H37.8486C37.6994 11.3063 37.5564 11.3655 37.4509 11.471C37.3454 11.5765 37.2861 11.7196 37.2861 11.8688C37.2861 12.018 37.3454 12.161 37.4509 12.2665C37.5564 12.372 37.6994 12.4313 37.8486 12.4313H41.8674C42.0166 12.4313 42.1597 12.372 42.2652 12.2665C42.3707 12.161 42.4299 12.018 42.4299 11.8688C42.4299 11.7196 42.3707 11.5765 42.2652 11.471C42.1597 11.3655 42.0166 11.3063 41.8674 11.3063Z" fill="white"/>
<path d="M35.0942 12.4313H35.4255C35.5746 12.4313 35.7177 12.372 35.8232 12.2665C35.9287 12.161 35.988 12.018 35.988 11.8688C35.988 11.7196 35.9287 11.5765 35.8232 11.471C35.7177 11.3655 35.5746 11.3063 35.4255 11.3063H35.0942C34.9451 11.3063 34.802 11.3655 34.6965 11.471C34.591 11.5765 34.5317 11.7196 34.5317 11.8688C34.5317 12.018 34.591 12.161 34.6965 12.2665C34.802 12.372 34.9451 12.4313 35.0942 12.4313Z" fill="white"/>
<path d="M26.9883 22.3049C28.2121 22.3049 29.4083 21.942 30.4259 21.2622C31.4434 20.5823 32.2365 19.6159 32.7048 18.4853C33.1731 17.3547 33.2956 16.1106 33.0569 14.9103C32.8181 13.7101 32.2288 12.6075 31.3635 11.7422C30.4982 10.8769 29.3957 10.2876 28.1954 10.0488C26.9951 9.81008 25.751 9.93261 24.6204 10.4009C23.4898 10.8692 22.5235 11.6623 21.8436 12.6798C21.1637 13.6974 20.8008 14.8937 20.8008 16.1174C20.8026 17.7579 21.4551 19.3306 22.6151 20.4906C23.7751 21.6506 25.3478 22.3031 26.9883 22.3049ZM26.9883 11.0549C27.9895 11.0549 28.9683 11.3518 29.8009 11.9081C30.6334 12.4644 31.2822 13.255 31.6654 14.1801C32.0486 15.1052 32.1488 16.1231 31.9535 17.1051C31.7582 18.0871 31.276 18.9892 30.568 19.6972C29.86 20.4052 28.958 20.8873 27.9759 21.0827C26.9939 21.278 25.976 21.1777 25.0509 20.7946C24.1259 20.4114 23.3352 19.7625 22.779 18.93C22.2227 18.0975 21.9258 17.1187 21.9258 16.1174C21.9273 14.7752 22.4612 13.4885 23.4103 12.5394C24.3593 11.5903 25.6461 11.0565 26.9883 11.0549Z" fill="white"/>
<path d="M25.3376 18.5699C25.4431 18.6754 25.5862 18.7346 25.7354 18.7346C25.8845 18.7346 26.0276 18.6754 26.1331 18.5699L30.2423 14.4607C30.3464 14.3549 30.4045 14.2123 30.4039 14.0639C30.4033 13.9155 30.3441 13.7733 30.2391 13.6684C30.1342 13.5635 29.9921 13.5043 29.8437 13.5037C29.6953 13.5031 29.5527 13.5611 29.4469 13.6652L25.7354 17.3767L24.5296 16.1709C24.4776 16.1175 24.4156 16.075 24.347 16.0458C24.2785 16.0166 24.2048 16.0013 24.1303 16.0007C24.0558 16.0002 23.9819 16.0145 23.913 16.0428C23.8441 16.0711 23.7814 16.1128 23.7287 16.1655C23.6761 16.2181 23.6344 16.2808 23.6061 16.3497C23.5778 16.4186 23.5635 16.4925 23.564 16.567C23.5645 16.6415 23.5798 16.7152 23.609 16.7837C23.6382 16.8523 23.6807 16.9143 23.7341 16.9663L25.3376 18.5699Z" fill="white"/>
</svg>
