<svg width="32" height="36" viewBox="0 0 32 36" fill="none" xmlns="http://www.w3.org/2000/svg">
<path fill-rule="evenodd" clip-rule="evenodd" d="M11 31C11 33.7614 13.2386 36 16 36C18.7614 36 21 33.7614 21 31H11Z" fill="#706F7F"/>
<path fill-rule="evenodd" clip-rule="evenodd" d="M3.15498 21.4882C0.817151 23.826 1.45726 27.6667 4.33349 27.6667C5.29704 27.6667 5.29704 27.6667 8.2137 27.6667C11.7814 27.6667 11.7814 27.6667 16.0002 27.6667C20.2189 27.6667 20.2189 27.6667 23.7866 27.6667C26.7033 27.6667 26.7033 27.6667 27.6668 27.6667C30.5431 27.6667 31.1832 23.826 28.8453 21.4882C27.9779 20.6207 27.3353 19.6258 26.8816 18.5085C26.1736 16.7649 26.0001 15.225 26.0002 12.7021C26.0002 12.6843 26.0002 12.6843 26.0002 12.6667C26.0002 5.54685 22.5232 1 16.0002 1C9.47716 1 6.00016 5.54685 6.00016 12.6667C6.00016 18.5002 5.93648 18.7067 3.15498 21.4882Z" stroke="#706F7F" stroke-width="2" stroke-linecap="round" stroke-linejoin="round"/>
</svg>
