<svg width="40" height="40" viewBox="0 0 40 40" fill="none" xmlns="http://www.w3.org/2000/svg">
<path fill-rule="evenodd" clip-rule="evenodd" d="M12.014 7.30015C13.4239 6.41177 14.992 5.75165 16.6665 5.37168V3.333C16.6665 2.4127 17.4054 1.66666 18.3488 1.66666H21.6509C22.58 1.66666 23.3332 2.40618 23.3332 3.333V5.37168C25.0077 5.75165 26.5758 6.41177 27.9856 7.30015L29.4282 5.85763C30.0789 5.20688 31.1289 5.20184 31.796 5.8689L34.1309 8.20384C34.7879 8.86081 34.7976 9.91631 34.1422 10.5717L32.6997 12.0142C33.5881 13.424 34.2482 14.9921 34.6281 16.6667H36.6668C37.5871 16.6667 38.3332 17.4056 38.3332 18.3489V21.651C38.3332 22.5801 37.5936 23.3333 36.6668 23.3333H34.6281C34.2482 25.0078 33.5881 26.576 32.6997 27.9858L34.1422 29.4283C34.7929 30.0791 34.798 31.1291 34.1309 31.7961L31.796 34.1311C31.139 34.7881 30.0835 34.7977 29.4282 34.1424L27.9856 32.6998C26.5758 33.5882 25.0077 34.2483 23.3332 34.6283V36.667C23.3332 37.5873 22.5942 38.3333 21.6509 38.3333H18.3488C17.4197 38.3333 16.6665 37.5938 16.6665 36.667V34.6283C14.992 34.2483 13.4239 33.5882 12.014 32.6998L10.5715 34.1424C9.92077 34.7931 8.87074 34.7981 8.20368 34.1311L5.86874 31.7961C5.21177 31.1392 5.20211 30.0837 5.85747 29.4283L7.3 27.9858C6.41161 26.576 5.7515 25.0078 5.37153 23.3333H3.33285C2.41255 23.3333 1.6665 22.5944 1.6665 21.651V18.3489C1.6665 17.4198 2.40603 16.6667 3.33285 16.6667H5.37153C5.7515 14.9921 6.41161 13.424 7.3 12.0142L5.85747 10.5717C5.20673 9.92092 5.20169 8.87089 5.86874 8.20384L8.20368 5.8689C8.86065 5.21192 9.91616 5.20227 10.5715 5.85763L12.014 7.30015ZM19.9998 26.6667C23.6817 26.6667 26.6665 23.6819 26.6665 20C26.6665 16.3181 23.6817 13.3333 19.9998 13.3333C16.3179 13.3333 13.3332 16.3181 13.3332 20C13.3332 23.6819 16.3179 26.6667 19.9998 26.6667Z" stroke="#706F7F" stroke-width="2" stroke-linejoin="round"/>
</svg>
