<svg width="48" height="48" viewBox="0 0 48 48" fill="none" xmlns="http://www.w3.org/2000/svg">
<path d="M33.2309 32.1969C34.9439 32.1969 36.3325 30.8083 36.3325 29.0954C36.3325 27.3824 34.9439 25.9938 33.2309 25.9938C31.518 25.9938 30.1294 27.3824 30.1294 29.0954C30.1294 30.8083 31.518 32.1969 33.2309 32.1969Z" fill="white"/>
<path fill-rule="evenodd" clip-rule="evenodd" d="M33.2304 34.6339C31.1997 34.6339 27.175 35.6308 27.0273 37.6247C28.4304 39.5816 30.6827 40.837 33.2304 40.837C35.7781 40.837 38.0673 39.5447 39.4335 37.6247C39.2858 35.5939 35.2612 34.6339 33.2304 34.6339Z" fill="white"/>
<path fill-rule="evenodd" clip-rule="evenodd" d="M36.9231 18.9785V8.04923L18.4615 0L0 8.04923V20.1231C0 31.3108 7.86462 41.76 18.4615 44.3077C19.7538 44.0123 21.0462 43.5692 22.2277 43.0154C24.96 46.0431 28.8369 48 33.2308 48C41.3908 48 48 41.3908 48 33.2308C48 26.3631 43.2738 20.64 36.9231 18.9785ZM18.4615 40.5046C9.96923 38.0308 3.69231 29.4277 3.69231 20.16V10.4862L18.4615 4.02462L33.2308 10.4862V18.4615C25.0708 18.4615 18.4615 25.0708 18.4615 33.2308C18.4615 35.6308 19.0892 37.8462 20.0862 39.84C19.5323 40.0615 19.0154 40.32 18.4615 40.5046ZM33.2308 44.3077C27.1015 44.3077 22.1538 39.36 22.1538 33.2308C22.1538 27.1015 27.1015 22.1538 33.2308 22.1538C39.36 22.1538 44.3077 27.1015 44.3077 33.2308C44.3077 39.36 39.36 44.3077 33.2308 44.3077Z" fill="white"/>
</svg>
