<svg width="48" height="48" viewBox="0 0 48 48" fill="none" xmlns="http://www.w3.org/2000/svg">
<path d="M24 34.875H29.25C29.7678 34.875 30.1875 34.4553 30.1875 33.9375C30.1875 33.4197 29.7678 33 29.25 33H24C23.4822 33 23.0625 33.4197 23.0625 33.9375C23.0625 34.4553 23.4822 34.875 24 34.875Z" fill="white"/>
<path d="M23.0625 37.6875C23.0625 38.2053 23.4822 38.625 24 38.625H37.6875C38.2053 38.625 38.625 38.2053 38.625 37.6875C38.625 37.1697 38.2053 36.75 37.6875 36.75H24C23.4822 36.75 23.0625 37.1697 23.0625 37.6875Z" fill="white"/>
<path d="M35.25 40.5C34.7333 40.5 34.3125 40.9208 34.3125 41.4375C34.3125 41.9542 34.7333 42.375 35.25 42.375C35.7667 42.375 36.1875 41.9542 36.1875 41.4375C36.1875 40.9208 35.7667 40.5 35.25 40.5Z" fill="white"/>
<path d="M31.5 40.5H24C23.4833 40.5 23.0625 40.9208 23.0625 41.4375C23.0625 41.9542 23.4833 42.375 24 42.375H31.5C32.0167 42.375 32.4375 41.9542 32.4375 41.4375C32.4375 40.9208 32.0167 40.5 31.5 40.5Z" fill="white"/>
<path d="M38.0625 41.4375C38.0625 41.9542 38.4833 42.375 39 42.375H41.4291C41.9458 42.375 42.3666 41.9542 42.3666 41.4375C42.3666 40.9208 41.9458 40.5 41.4291 40.5H39C38.4833 40.5 38.0625 40.9208 38.0625 41.4375Z" fill="white"/>
<path d="M15.9417 30.2713C15.4704 30.0574 14.9145 30.2662 14.7006 30.7375L10.8745 39.1702L7.04133 30.7371C6.82709 30.2658 6.27118 30.0571 5.79987 30.2717C5.32856 30.4859 5.11982 31.0414 5.33442 31.5128L10.0219 41.8253C10.1739 42.16 10.5075 42.3749 10.8752 42.3749H10.8756C11.2432 42.3749 11.5768 42.1596 11.7288 41.8249L16.4083 31.5124C16.6221 31.0407 16.413 30.4852 15.9417 30.2713Z" fill="white"/>
<path d="M24.9375 17.0625C24.9375 17.5803 24.5178 18 24 18C23.4822 18 23.0625 17.5803 23.0625 17.0625C23.0625 16.5447 23.4822 16.125 24 16.125C24.5178 16.125 24.9375 16.5447 24.9375 17.0625Z" fill="white"/>
<path d="M47.0625 15.1875H29.625V13.5718L36.8983 1.41907C37.0715 1.12939 37.0759 0.768677 36.9093 0.475342C36.7427 0.181641 36.4314 0 36.0938 0H26.9062C26.5803 0 26.2778 0.169556 26.1072 0.447143L24 3.8811L21.8928 0.447143C21.7222 0.169556 21.4197 0 21.0938 0H11.9062C11.5686 0 11.2573 0.181641 11.0907 0.474976C10.9241 0.768677 10.9285 1.12939 11.1021 1.41907L18.375 13.5718V15.1875H0.9375C0.419678 15.1875 0 15.6072 0 16.125V47.0625C0 47.5803 0.419678 48 0.9375 48H47.0625C47.5803 48 48 47.5803 48 47.0625V16.125C48 15.6072 47.5803 15.1875 47.0625 15.1875ZM18.9642 22.058L23.6517 23.933C23.7634 23.9777 23.8817 24 24 24C24.1183 24 24.2366 23.9777 24.3483 23.933L29.0358 22.058C29.3917 21.9155 29.625 21.5709 29.625 21.1875V20.8993C30.7035 21.1893 31.5 22.1752 31.5 23.3438C31.5 24.7394 30.3644 25.875 28.9688 25.875H19.0312C17.6356 25.875 16.5 24.7394 16.5 23.3438C16.5 22.1748 17.2965 21.189 18.375 20.8993V21.1875C18.375 21.5709 18.6083 21.9155 18.9642 22.058ZM20.25 20.5529V14.25H27.75V20.5529L24 22.0529L20.25 20.5529ZM27.431 1.875H34.4399L28.6776 11.5038L25.1001 5.67371L27.431 1.875ZM13.5601 1.875H20.569L27.0125 12.375H19.8442L13.5601 1.875ZM46.125 46.125H1.875V17.0625H18.375V18.9866C16.2554 19.3044 14.625 21.1373 14.625 23.3438C14.625 25.7732 16.6018 27.75 19.0312 27.75H28.9688C31.3982 27.75 33.375 25.7732 33.375 23.3438C33.375 21.1373 31.7446 19.3044 29.625 18.9866V17.0625H46.125V46.125Z" fill="white"/>
</svg>
