<svg width="48" height="48" viewBox="0 0 48 48" fill="none" xmlns="http://www.w3.org/2000/svg">
<g clip-path="url(#clip0_1423:464)">
<path d="M40 24C37.8 24 36 22.2 36 20C36 17.8 37.8 16 40 16C42.2 16 44 17.8 44 20C44 22.2 42.2 24 40 24ZM40 18C38.8 18 38 18.8 38 20C38 21.2 38.8 22 40 22C41.2 22 42 21.2 42 20C42 18.8 41.2 18 40 18Z" fill="#006FFD"/>
<path d="M47 34C46.4 34 46 33.6 46 33V31C46 29.4 44.6 28 43 28H37C36.4 28 36 27.6 36 27C36 26.4 36.4 26 37 26H43C45.8 26 48 28.2 48 31V33C48 33.6 47.6 34 47 34Z" fill="#006FFD"/>
<path d="M8 24C5.8 24 4 22.2 4 20C4 17.8 5.8 16 8 16C10.2 16 12 17.8 12 20C12 22.2 10.2 24 8 24ZM8 18C6.8 18 6 18.8 6 20C6 21.2 6.8 22 8 22C9.2 22 10 21.2 10 20C10 18.8 9.2 18 8 18Z" fill="#006FFD"/>
<path d="M1 34C0.4 34 0 33.6 0 33V31C0 28.2 2.2 26 5 26H11C11.6 26 12 26.4 12 27C12 27.6 11.6 28 11 28H5C3.4 28 2 29.4 2 31V33C2 33.6 1.6 34 1 34Z" fill="#006FFD"/>
<path d="M24 25C20.6 25 18 22.4 18 19C18 15.6 20.6 13 24 13C27.4 13 30 15.6 30 19C30 22.4 27.4 25 24 25ZM24 15C21.8 15 20 16.8 20 19C20 21.2 21.8 23 24 23C26.2 23 28 21.2 28 19C28 16.8 26.2 15 24 15Z" fill="#006FFD"/>
<path d="M34 38C33.4 38 33 37.6 33 37V33C33 31.4 31.6 30 30 30H18C16.4 30 15 31.4 15 33V37C15 37.6 14.6 38 14 38C13.4 38 13 37.6 13 37V33C13 30.2 15.2 28 18 28H30C32.8 28 35 30.2 35 33V37C35 37.6 34.6 38 34 38Z" fill="#006FFD"/>
</g>
<defs>
<clipPath id="clip0_1423:464">
<rect width="48" height="48" fill="white"/>
</clipPath>
</defs>
</svg>
